<?xml version="1.0"?>
<svg xmlns="http://www.w3.org/2000/svg" height="512px" viewBox="-48 0 495 495.21114" width="512px" class=""><g><path d="m147.460938 216.605469c0 3.3125 2.6875 6 6 6h58.742187c-2.832031 16-16.375 27-32.617187 27h-26.125c-2.480469.074219-4.671876 1.625-5.570313 3.933593-.898437 2.3125-.328125 4.9375 1.449219 6.667969l65.300781 61.742188c1.148437 1.097656 2.691406 1.695312 4.28125 1.65625 1.59375-.039063 3.105469-.710938 4.199219-1.867188 2.273437-2.46875 2.167968-6.300781-.238282-8.636719l-54.335937-51.496093h11.039063c22.570312.015625 41.6875-16.640625 44.761718-39h20.410156c3.316407 0 6-2.6875 6-6s-2.683593-6-6-6h-20.410156c-1.335937-10.402344-6.351562-19.980469-14.136718-27h34.550781c3.316406 0 6-2.6875 6-6s-2.683594-6-6-6h-91.300781c-3.3125 0-6 2.6875-6 6s2.6875 6 6 6h26.125c15.90625.113281 29.535156 11.398437 32.621093 27h-58.746093c-3.3125 0-6 2.6875-6 6zm0 0" data-original="#000000" class="active-path" data-old_color="#12C93B" fill="#12CA3C"/><path d="m68.382812 407.191406 127.4375 86.976563c.980469.679687 2.144532 1.042969 3.335938 1.042969 1.199219 0 2.371094-.363282 3.359375-1.042969l127.328125-86.976563c38.390625-26.175781 68.265625-83.050781 68.265625-129.484375v-176.734375c.074219-2.257812-1.160156-4.355468-3.167969-5.386718l-193.28125-94.972657c-1.648437-.816406-3.585937-.816406-5.238281 0l-193.160156 94.710938c-2.007813 1.03125-3.2382815 3.132812-3.152344 5.386719v177c0 46.429687 29.886719 103.304687 68.273437 129.480468zm-56.273437-302.738281 187-91.769531 187 92.027344v173c0 42.875-27.582031 95.398437-63.035156 119.566406l-124.058594 84.671875-123.917969-84.675781c-35.453125-24.167969-62.988281-76.691407-62.988281-119.566407zm0 0" data-original="#000000" class="active-path" data-old_color="#12C93B" fill="#12CA3C"/><path d="m97.21875 368.363281 98.460938 67.117188c2.050781 1.390625 4.746093 1.390625 6.800781 0l98.511719-67.117188c27.109374-18.480469 50.117187-61.789062 50.117187-94.570312v-140.082031c-.039063-2.300782-1.378906-4.386719-3.453125-5.382813l-145.847656-71.617187c-1.675782-.816407-3.632813-.816407-5.308594 0l-145.910156 71.402343c-2.089844.992188-3.433594 3.082031-3.480469 5.390625v140.285156c0 32.78125 23 76.09375 50.109375 94.574219zm-38.109375-231.121093 140-68.460938 140 68.667969v136.34375c0 28.835937-21.019531 68.398437-44.871094 84.65625l-95.078125 64.8125-95.15625-64.8125c-23.847656-16.261719-44.894531-55.820313-44.894531-84.660157zm0 0" data-original="#000000" class="active-path" data-old_color="#12C93B" fill="#12CA3C"/></g> </svg>
