<?xml version="1.0"?>
<svg xmlns="http://www.w3.org/2000/svg" xmlns:xlink="http://www.w3.org/1999/xlink" version="1.1" id="Layer_1" x="0px" y="0px" viewBox="0 0 512 512" style="enable-background:new 0 0 512 512;" xml:space="preserve" width="512px" height="512px"><g><g>
	<g>
		<g>
			<path d="M511.996,187.974c-0.004-0.343-0.034-0.678-0.08-1.009c-0.008-0.051-0.008-0.102-0.016-0.153     c-0.006-0.042-0.019-0.082-0.026-0.124c-0.065-0.372-0.149-0.736-0.263-1.09l-0.005-0.021c-0.006-0.018-0.016-0.034-0.022-0.053     c-0.115-0.348-0.257-0.683-0.416-1.008c-0.018-0.038-0.031-0.078-0.051-0.114c-0.012-0.023-0.026-0.045-0.038-0.068     c-0.167-0.319-0.356-0.625-0.563-0.917c-0.022-0.03-0.04-0.063-0.061-0.094c-0.032-0.044-0.07-0.083-0.102-0.126     c-0.21-0.276-0.431-0.542-0.674-0.789c-0.014-0.014-0.025-0.029-0.039-0.042c-0.004-0.005-0.01-0.01-0.014-0.015     c-0.01-0.01-0.021-0.018-0.03-0.028c-0.259-0.255-0.539-0.488-0.831-0.708c-0.034-0.026-0.064-0.058-0.098-0.083l-0.001-0.001     l-59.575-43.253c-3.613-2.623-8.667-1.823-11.292,1.793c-2.624,3.613-1.819,8.668,1.793,11.291l39.429,28.627H329.605     l-190.549-61.333c-0.53-0.17-1.066-0.283-1.601-0.342c-3.736-0.41-7.375,1.842-8.573,5.561L110.82,179.99H32.98L256.001,18.075     l163.359,118.6c3.612,2.62,8.666,1.822,11.292-1.793c2.624-3.613,1.821-8.668-1.793-11.292L260.75,1.542     c-2.832-2.057-6.668-2.057-9.5,0L3.335,181.533l-0.001,0.001c-0.034,0.025-0.064,0.057-0.098,0.083     c-0.291,0.219-0.571,0.452-0.831,0.708c-0.01,0.01-0.02,0.018-0.03,0.028c-0.005,0.005-0.01,0.01-0.015,0.015     c-0.013,0.013-0.024,0.027-0.036,0.04c-0.244,0.248-0.466,0.514-0.676,0.791c-0.032,0.043-0.07,0.082-0.101,0.125     c-0.022,0.03-0.04,0.063-0.061,0.094c-0.207,0.292-0.396,0.598-0.563,0.917c-0.012,0.023-0.026,0.045-0.038,0.068     c-0.019,0.038-0.032,0.077-0.051,0.114c-0.159,0.324-0.301,0.66-0.416,1.007c-0.006,0.018-0.016,0.034-0.023,0.053     c-0.002,0.006-0.002,0.014-0.005,0.021c-0.113,0.352-0.198,0.717-0.262,1.089c-0.008,0.042-0.021,0.083-0.027,0.125     c-0.008,0.051-0.009,0.101-0.015,0.153c-0.045,0.331-0.075,0.666-0.08,1.009c0,0.029-0.004,0.057-0.004,0.086L0,188.074v0.024     c0,0.005,0,0.01,0,0.015v315.803c0,0.044,0.005,0.087,0.006,0.132c0.002,0.147,0.012,0.292,0.023,0.439     c0.009,0.123,0.016,0.246,0.03,0.368c0.016,0.136,0.04,0.271,0.063,0.406c0.022,0.128,0.041,0.257,0.068,0.382     c0.028,0.127,0.064,0.251,0.097,0.377c0.034,0.129,0.068,0.26,0.109,0.388c0.039,0.12,0.086,0.237,0.13,0.356     c0.049,0.128,0.095,0.257,0.149,0.382c0.05,0.113,0.107,0.223,0.162,0.335c0.063,0.126,0.123,0.252,0.191,0.375     c0.058,0.104,0.123,0.204,0.185,0.305c0.078,0.126,0.155,0.251,0.239,0.372c0.065,0.093,0.136,0.182,0.205,0.274     c0.094,0.124,0.189,0.246,0.29,0.364c0.027,0.031,0.05,0.066,0.076,0.096c0.045,0.051,0.096,0.094,0.141,0.143     c0.119,0.127,0.239,0.251,0.365,0.371c0.085,0.081,0.17,0.158,0.258,0.235c0.12,0.104,0.244,0.204,0.369,0.301     c0.096,0.074,0.192,0.149,0.291,0.218c0.127,0.089,0.259,0.172,0.392,0.254c0.1,0.063,0.199,0.126,0.302,0.183     c0.148,0.083,0.3,0.156,0.453,0.23c0.092,0.044,0.181,0.093,0.275,0.133c0.184,0.08,0.375,0.149,0.566,0.216     c0.066,0.023,0.129,0.051,0.195,0.071c0.245,0.078,0.494,0.143,0.747,0.198c0.015,0.003,0.03,0.009,0.046,0.012     C6.96,511.94,7.515,512,8.084,512h495.832c0.57,0,1.125-0.06,1.661-0.172c0.015-0.003,0.03-0.009,0.046-0.012     c0.253-0.055,0.503-0.12,0.747-0.198c0.066-0.021,0.129-0.049,0.195-0.071c0.192-0.067,0.382-0.135,0.567-0.216     c0.093-0.04,0.182-0.088,0.274-0.132c0.153-0.073,0.306-0.147,0.453-0.23c0.102-0.057,0.202-0.122,0.302-0.183     c0.133-0.082,0.264-0.165,0.392-0.254c0.099-0.069,0.195-0.143,0.291-0.218c0.126-0.097,0.249-0.196,0.369-0.301     c0.087-0.077,0.174-0.154,0.258-0.235c0.126-0.12,0.247-0.244,0.365-0.371c0.046-0.05,0.097-0.093,0.141-0.143     c0.027-0.031,0.05-0.065,0.077-0.096c0.101-0.119,0.196-0.24,0.29-0.364c0.069-0.092,0.14-0.181,0.205-0.274     c0.084-0.121,0.162-0.246,0.239-0.372c0.063-0.101,0.128-0.203,0.185-0.305c0.069-0.123,0.129-0.25,0.192-0.376     c0.055-0.111,0.111-0.221,0.161-0.333c0.055-0.126,0.101-0.255,0.15-0.384c0.044-0.117,0.091-0.235,0.129-0.354     c0.041-0.127,0.074-0.258,0.109-0.388c0.033-0.125,0.069-0.25,0.097-0.377c0.027-0.125,0.046-0.253,0.068-0.382     c0.023-0.136,0.046-0.271,0.063-0.406c0.014-0.122,0.022-0.245,0.03-0.368c0.01-0.147,0.019-0.292,0.022-0.439     c0.001-0.044,0.006-0.087,0.006-0.132V188.113c0.001-0.005,0.001-0.01,0.001-0.015v-0.024v-0.014     C512,188.031,511.996,188.003,511.996,187.974z M479.021,196.158l-30.466,22.118l-68.718-22.118H479.021z M124.406,190.551     l17.39-54.026l184.061,59.245l106.487,34.276l-37.068,26.911L239.02,206.66c-4.249-1.362-8.804,0.968-10.173,5.219     c-1.368,4.249,0.968,8.804,5.219,10.173l145.002,46.673l-19.811,14.382L172.329,222.94c-4.248-1.364-8.804,0.968-10.173,5.219     c-1.368,4.249,0.968,8.804,5.219,10.173l175.671,56.544l-19.81,14.381l-24.31-7.826c-4.248-1.366-8.804,0.968-10.173,5.219     c-1.367,4.249,0.968,8.804,5.219,10.173l13.054,4.202l-51.025,37.044L105.625,248.899L124.406,190.551z M105.615,196.158     l-13.758,42.745L32.98,196.158H105.615z M16.168,203.933L191.563,331.27L16.168,486.004V203.933z M29.469,495.832     l175.503-154.828l46.281,33.6c0.034,0.025,0.072,0.041,0.107,0.066c0.314,0.22,0.636,0.424,0.973,0.594     c0.01,0.004,0.018,0.011,0.027,0.016c0.004,0.002,0.008,0.004,0.012,0.006c0.34,0.17,0.692,0.309,1.05,0.43     c0.115,0.039,0.232,0.07,0.349,0.104c0.252,0.072,0.507,0.133,0.764,0.18c0.123,0.023,0.244,0.047,0.367,0.064     c0.35,0.049,0.702,0.079,1.055,0.081c0.013,0,0.026,0.003,0.038,0.003c0.002,0,0.004-0.001,0.006-0.001     c0.002,0,0.004,0.001,0.006,0.001c0.013,0,0.025-0.003,0.038-0.003c0.354-0.002,0.705-0.032,1.055-0.081     c0.124-0.017,0.246-0.042,0.369-0.065c0.257-0.047,0.51-0.107,0.761-0.179c0.117-0.033,0.236-0.065,0.352-0.105     c0.357-0.12,0.708-0.259,1.048-0.429c0.004-0.002,0.009-0.004,0.013-0.006c0.011-0.005,0.02-0.013,0.031-0.018     c0.335-0.171,0.656-0.373,0.969-0.592c0.034-0.025,0.073-0.041,0.108-0.066l46.279-33.599l175.503,154.827H29.469z      M495.832,486.003L320.438,331.272l80.977-58.789c0.005-0.003,0.01-0.008,0.015-0.011l94.402-68.538V486.003z" data-original="#000000" class="active-path" data-old_color="#000000" fill="#FFFFFF"/>
			<path d="M180.823,204.869l29.455,9.48c0.823,0.264,1.658,0.39,2.479,0.39c3.416,0,6.59-2.183,7.694-5.609     c1.368-4.25-0.968-8.804-5.219-10.173l-29.455-9.48c-4.247-1.367-8.804,0.969-10.173,5.219     C174.237,198.947,176.573,203.5,180.823,204.869z" data-original="#000000" class="active-path" data-old_color="#000000" fill="#FFFFFF"/>
			<path d="M273.06,309.687c3.416,0,6.59-2.183,7.694-5.609c1.368-4.249-0.968-8.804-5.219-10.173l-116.656-37.548     c-4.247-1.362-8.804,0.968-10.173,5.219c-1.366,4.25,0.97,8.804,5.22,10.173l116.655,37.548     C271.404,309.561,272.238,309.687,273.06,309.687z" data-original="#000000" class="active-path" data-old_color="#000000" fill="#FFFFFF"/>
		</g>
	</g>
</g></g> </svg>
