<svg height="512pt" viewBox="0 0 512 512" width="512pt" xmlns="http://www.w3.org/2000/svg"><path d="m512 256c0 141.386719-114.613281 256-256 256s-256-114.613281-256-256 114.613281-256 256-256 256 114.613281 256 256zm0 0" fill="#575f64"/><path d="m511.320312 237.339844-105.964843-105.960938-4.289063 4.289063-40.019531-40.023438-4.046875 59.105469-14.667969 19.582031-42.601562-42.953125-3.996094 4-39.710937-39.714844-4.042969 59.105469-14.648438 19.230469-42.640625-42.621094-4 4-39.710937-39.714844-4.042969 59.105469 2.882812 3.011719-25.929687 25.929688 110.480469 110.484374-2.589844 2.585938 47.554688 47.554688-2.886719 3.210937-84.082031-84.085937-49.605469 49.605468 22.582031 22.582032-58.71875 58.71875 115.378906 115.382812c11.125 1.476562 22.46875 2.25 33.996094 2.25 141.386719 0 256-114.613281 256-256 0-6.277344-.238281-12.496094-.679688-18.660156zm0 0" fill="#32393f"/><path d="m343.527344 324.359375c-19.308594 0-35.011719-15.703125-35.011719-35.011719s15.703125-35.59375 35.011719-35.59375 35.011718 16.285156 35.011718 35.59375-15.703124 35.011719-35.011718 35.011719zm0 0" fill="#f6a96c"/><path d="m343.527344 324.359375c-13.324219 0-25.566406 4.363281-35.621094 11.589844l-12.851562 29.03125 22.214843 29.402343h88.113281v-8.753906c0-33.839844-28.015624-61.269531-61.855468-61.269531zm0 0" fill="#32ddf9"/><path d="m150.964844 169.558594-27.113282 14.171875 5.148438-31.082031-22.382812-21.257813 31.03125-4.378906 13.316406-31.394531 13.644531 31.394531 30.121094 4.378906-21.796875 21.257813 5.144531 31.082031zm0 0" fill="#ffda2d"/><path d="m277.882812 152.570312 5.25 31.160157-27.132812-14.179688-27.132812 14.179688 5.25-31.160157-21.882813-21.179687 30.460937-4.378906 13.304688-31.394531 13.65625 31.394531 30.109375 4.378906zm0 0" fill="#ffda2d"/><path d="m361.035156 169.558594-27.113281 14.171875 5.144531-31.082031-21.796875-21.257813 30.445313-4.378906 13.320312-31.394531 13.640625 31.394531 30.707031 4.378906-22.382812 21.257813 5.148438 31.082031zm0 0" fill="#fdbf00"/><path d="m168.472656 324.359375c-19.308594 0-35.011718-15.703125-35.011718-35.011719s15.703124-35.59375 35.011718-35.59375 35.011719 16.285156 35.011719 35.59375-15.703125 35.011719-35.011719 35.011719zm0 0" fill="#ffbd86"/><path d="m168.472656 324.359375c-33.839844 0-61.855468 27.429687-61.855468 61.269531v8.753906h88.113281l21.710937-26.261718-12.347656-32.171875c-10.054688-7.226563-22.296875-11.589844-35.621094-11.589844zm0 0" fill="#84ecf7"/><path d="m283.132812 183.730469-27.132812-14.179688v-73.933593l13.65625 31.394531 30.109375 4.378906-21.882813 21.179687zm0 0" fill="#fdbf00"/><path d="m256 236.246094c-19.257812 0-35.011719 15.753906-35.011719 35.011718 0 19.257813 15.753907 35.59375 35.011719 35.59375s35.011719-16.335937 35.011719-35.59375c0-19.253906-15.753907-35.011718-35.011719-35.011718zm0 0" fill="#fed2a4"/><path d="m317.269531 368.121094v26.261718h-122.539062v-26.261718c0-11.902344 3.5-22.753906 9.277343-32.210938 10.851563-17.328125 30.109376-29.058594 51.992188-29.058594s41.136719 11.730469 51.988281 29.058594c5.78125 9.457032 9.28125 20.308594 9.28125 32.210938zm0 0" fill="#ff637b"/><path d="m256 306.851562v-70.605468c19.257812 0 35.011719 15.753906 35.011719 35.011718 0 19.257813-15.753907 35.59375-35.011719 35.59375zm0 0" fill="#f6a96c"/><path d="m317.269531 368.121094v26.261718h-61.269531v-87.53125c21.882812 0 41.136719 11.730469 51.992188 29.058594 5.777343 9.457032 9.277343 20.308594 9.277343 32.210938zm0 0" fill="#e63950"/></svg>