<?xml version="1.0"?>
<svg xmlns="http://www.w3.org/2000/svg" viewBox="0 -34 512 512" width="512px" height="512px"><g><path d="m482 16h-383.382812l-13.015626-13.058594c-1.878906-1.882812-4.425781-2.941406-7.082031-2.941406h-48.519531c-16.542969 0-30 13.457031-30 30v72c0 13.035156 8.359375 24.152344 20 28.28125v283.71875c0 16.542969 13.457031 30 30 30h432c16.542969 0 30-13.457031 30-30v-98c0-5.523438-4.476562-10-10-10s-10 4.476562-10 10v98c0 5.515625-4.484375 10-10 10h-432c-5.515625 0-10-4.484375-10-10v-282h452v100c0 5.523438 4.476562 10 10 10s10-4.476562 10-10v-186c0-16.542969-13.457031-30-30-30zm-161.019531 96 76-76h80.875l-76 76zm-109.160157 0 76-76h80.875l-76 76zm-109.214843 0 38.792969-38.925781 37.246093-37.074219h80.890625l-76 76zm47.691406-76-15.9375 15.863281-15.808594-15.863281zm-78.226563 76h-42.070312c-5.515625 0-10-4.484375-10-10v-72c0-5.515625 4.484375-10 10-10h44.367188l45.847656 46-45.847656 46zm358.074219 0 61.855469-61.855469v61.855469zm0 0" data-original="#000000" class="active-path" data-old_color="#10cfbd" fill="#10cfbd"/><path d="m502 268c-2.628906 0-5.210938 1.070312-7.070312 2.929688-1.859376 1.859374-2.929688 4.441406-2.929688 7.070312s1.070312 5.210938 2.929688 7.070312c1.859374 1.859376 4.441406 2.929688 7.070312 2.929688s5.210938-1.070312 7.070312-2.929688c1.859376-1.859374 2.929688-4.441406 2.929688-7.070312s-1.070312-5.210938-2.929688-7.070312c-1.859374-1.859376-4.441406-2.929688-7.070312-2.929688zm0 0" data-original="#000000" class="active-path" data-old_color="#10cfbd" fill="#10cfbd"/><path d="m254.445312 199.382812c-9.476562-6.078124-21.035156-6.480468-30.914062-1.078124-9.882812 5.402343-15.777344 15.347656-15.777344 26.609374v116.902344c0 11.261719 5.894532 21.207032 15.777344 26.609375 4.621094 2.527344 9.609375 3.785157 14.582031 3.785157 5.65625 0 11.289063-1.625 16.332031-4.859376l91.195313-58.453124c8.742187-5.605469 13.960937-15.148438 13.960937-25.535157 0-10.382812-5.21875-19.929687-13.960937-25.53125zm80.402344 92.679688-91.191406 58.453125c-4.652344 2.980469-8.914062 1.25-10.527344.367187-1.617187-.886718-5.375-3.535156-5.375-9.0625v-116.90625c0-5.527343 3.757813-8.179687 5.375-9.0625.933594-.511718 2.757813-1.304687 5.03125-1.304687 1.648438 0 3.539063.417969 5.496094 1.671875l91.195312 58.453125c3.019532 1.9375 4.753907 5.105469 4.753907 8.695313-.003907 3.585937-1.734375 6.757812-4.757813 8.695312zm0 0" data-original="#000000" class="active-path" data-old_color="#10cfbd" fill="#10cfbd"/><path d="m58 56.488281c-2.628906 0-5.210938 1.070313-7.070312 2.933594-1.859376 1.859375-2.929688 4.429687-2.929688 7.066406 0 2.632813 1.070312 5.210938 2.929688 7.070313 1.859374 1.863281 4.441406 2.929687 7.070312 2.929687s5.210938-1.066406 7.070312-2.929687c1.859376-1.859375 2.929688-4.4375 2.929688-7.070313 0-2.628906-1.070312-5.207031-2.929688-7.066406-1.859374-1.863281-4.441406-2.933594-7.070312-2.933594zm0 0" data-original="#000000" class="active-path" data-old_color="#10cfbd" fill="#10cfbd"/><path d="m78.519531 235.5c-5.523437 0-10 4.476562-10 10v97.5c0 5.523438 4.476563 10 10 10 5.519531 0 10-4.476562 10-10v-97.5c0-5.523438-4.480469-10-10-10zm0 0" data-original="#000000" class="active-path" data-old_color="#10cfbd" fill="#10cfbd"/><path d="m85.589844 197.480469c-1.859375-1.859375-4.441406-2.929688-7.070313-2.929688-2.640625 0-5.210937 1.070313-7.070312 2.929688s-2.929688 4.441406-2.929688 7.070312c0 2.640625 1.070313 5.210938 2.929688 7.070313 1.859375 1.867187 4.441406 2.929687 7.070312 2.929687 2.628907 0 5.210938-1.0625 7.070313-2.929687 1.859375-1.859375 2.929687-4.429688 2.929687-7.070313 0-2.628906-1.070312-5.210937-2.929687-7.070312zm0 0" data-original="#000000" class="active-path" data-old_color="#10cfbd" fill="#10cfbd"/></g> </svg>
