<?xml version="1.0"?>
<svg xmlns="http://www.w3.org/2000/svg" id="Capa_1" enable-background="new 0 0 512 512" height="512px" viewBox="0 0 512 512" width="512px" class=""><g><path d="m452 45v-45h-136c-24.508 0-46.305 11.818-60 30.052-13.695-18.234-35.492-30.052-60-30.052h-136v45h-60v467h512v-467zm30 30v347h-166c-16.87 0-32.457 5.599-45 15.036 0-24.85 20.187-45.036 45-45.036h136v-317zm-166-45h106v332h-106c-16.869 0-32.457 5.6-45 15.035v-302.035c0-24.813 20.187-45 45-45zm-226 0h106c24.813 0 45 20.187 45 45v302.041c-12.544-9.438-28.129-15.041-45-15.041h-106zm-30 45v317h136c24.813 0 45 20.187 45 45-12.543-9.401-28.13-15-45-15h-166v-347zm-30 377h166c19.555 0 36.228 12.541 42.42 30h-208.42zm243.58 30c6.192-17.459 22.865-30 42.42-30h166v30z" data-original="#000000" class="active-path" data-old_color="#10cfbd" fill="#10cfbd"/></g> </svg>
